<svg id="Layer_1" data-name="Layer 1" xmlns="http://www.w3.org/2000/svg" viewBox="0 0 289 178"><defs><style>.cls-1{fill:#6441a4;fill-rule:evenodd}</style></defs><title>Combo</title><path class="cls-1" d="M252 91l-4 13 .09 60H263v8h8l8-8h14l26-26V91h-67zm60 43l-11 11h-18l-10 10v-10h-15V98h54v36zm-18-23h7v20h-7v-20zm-18 0h7v20h-7v-20zm85 93v47l-26 18h-16v-8l-12 8h-14v-8l-9 8h-26l-8-8-2 8-22.95-.06L216 261l-1 8-26-.06-1-7.94-7 7.94-40 .06-8-4v4h-22l-24-15-15-15v-66h31l15 15h68v-15h56v15h14v8l8-8h17l15-15h32v15h17zm-250-9H97v-15H79v56l11 12h21v-19H97v-16h14v-18zm75 0h-18v34h-7v-34h-17v34h-7v-34h-19v53h56l12-12v-41zm24 0h-17v53h17v-53zm0-15h-17v8h17v-8zm39 15h-14v-15h-18v56l11 12h21v-19h-14v-16h14v-18zm46 0h-28l-11 11v30l12 12h27v-19h-20v-16h20v-18zm59 11l-12-11h-21v-15h-19v68h19v-35h14v35h19v-42z" transform="translate(-72 -91)"/></svg>