<?xml version="1.0" encoding="utf-8"?>
<!-- Generator: Adobe Illustrator 16.0.3, SVG Export Plug-In . SVG Version: 6.00 Build 0)  -->
<!DOCTYPE svg PUBLIC "-//W3C//DTD SVG 1.1//EN" "http://www.w3.org/Graphics/SVG/1.1/DTD/svg11.dtd">
<svg version="1.1" id="Layer_1" xmlns="http://www.w3.org/2000/svg" xmlns:xlink="http://www.w3.org/1999/xlink" x="0px" y="0px"
	 width="564.685px" height="92.098px" viewBox="0 0 564.685 92.098" enable-background="new 0 0 564.685 92.098"
	 xml:space="preserve">
<path fill="#0E6463" d="M210.736,3.146h-26.723l-0.008,86.965l26.73-0.002c26.853,0,45.784-17.774,45.784-43.479
	C256.521,20.927,237.464,3.146,210.736,3.146z M209.842,74.382h-7.932V18.876h7.932c19.311,0,28.134,11.516,28.134,27.754
	C237.976,62.872,229.152,74.382,209.842,74.382z"/>
<path fill="#0E6463" d="M0,3.146h17.902v71.235l40.846,0.002l-3.955,15.726H0V3.146z"/>
<path fill="#0E6463" d="M66.93,3.146h17.902v86.963H66.93V3.146z"/>
<path fill="#0E6463" d="M115.322,41.175v48.935H98.568V2.382h1.787l52.949,49.698V3.146h16.748v87.731h-1.789L115.322,41.175z"/>
<path fill="#0E6463" d="M310.872,0c-25.867,0-46.447,19.53-46.447,46.048c0,26.522,20.58,46.05,46.447,46.05
	c25.861,0,46.445-19.527,46.445-46.05C357.317,19.53,336.733,0,310.872,0z M310.872,74.796c-16.146,0-28.994-12.191-28.994-28.748
	c0-16.553,12.848-28.745,28.994-28.745c16.145,0,28.992,12.192,28.992,28.745C339.864,62.604,327.017,74.796,310.872,74.796z"/>
<path fill="#0E6463" d="M447.646,3.152h54.27l-3.959,15.728h-32.408v25.595h26.025l-3.982,15.984h-22.043v29.652h-17.902V3.152z"/>
<path fill="#0E6463" d="M510.415,3.152h54.27l-3.959,15.728h-32.406v25.595h26.026l-3.985,15.984h-22.041v29.652h-17.904V3.152z"/>
<path fill="#0E6463" d="M419.144,90.109h21.498L411.87,58.148c10.93-4.143,18.367-13.618,18.367-26.471
	c0-17.521-13.814-28.515-31.467-28.52l-0.01-0.006h-31.449v86.959h17.904V60.469h9.035L419.144,90.109z M385.216,17.303h13.545
	c7.16,0,14.506,4.725,14.506,14.375s-7.305,14.37-14.506,14.37h-13.545V17.303z"/>
</svg>
